<svg width="178" height="185" viewBox="0 0 178 185" fill="none" xmlns="http://www.w3.org/2000/svg">
<g clip-path="url(#clip0)">
<path d="M0 92.5C0 41.4136 39.8466 0 89 0C138.153 0 178 41.4136 178 92.5C178 116.34 169.322 138.073 155.071 154.475C138.784 173.22 115.216 143.118 89 143.118C62.7843 143.118 39.216 173.22 22.9286 154.474C8.6775 138.073 0 116.34 0 92.5Z" fill="#71F4E4"/>
<path d="M177.498 82.6174L117.484 20.2432L55.8423 77.9353L124.653 149.453V148.258L133.723 159.055C141.713 161.667 148.913 161.563 155.071 154.474C169.323 138.073 178 116.34 178 92.5001C178 89.1614 177.83 85.8643 177.498 82.6174Z" fill="#1ED3C6"/>
<path d="M69.5205 90.416H108.479V133.356H69.5205V90.416Z" fill="#EAA678"/>
<path d="M89 90.4175H108.479V133.358H89V90.4175Z" fill="#D38C5B"/>
<path d="M69.5205 117.367H108.479V161.199H69.5205V117.367Z" fill="#EAA678"/>
<path d="M89 117.367H108.479V161.199H89V117.367Z" fill="#D38C5B"/>
<path d="M155.072 138.125V154.475C138.781 173.221 115.213 185 88.9998 185C62.7865 185 39.2189 173.221 22.9277 154.475V138.125C22.9277 126.66 31.8695 117.367 42.9006 117.367H69.5206V121.869C69.5206 133.052 78.2433 142.114 88.9998 142.114C94.3781 142.114 99.2487 139.849 102.774 136.185C106.299 132.521 108.479 127.462 108.479 121.869V117.367H135.099C146.13 117.367 155.072 126.66 155.072 138.125Z" fill="#0A617D"/>
<path d="M155.072 138.125V154.475C138.781 173.221 115.213 185 89 185V142.114C94.3782 142.114 99.2489 139.849 102.774 136.185C106.299 132.521 108.479 127.462 108.479 121.869V117.367H135.099C146.13 117.367 155.072 126.66 155.072 138.125Z" fill="#08475E"/>
<path d="M54.6968 151.629V177.871C50.8135 176.187 47.0657 174.218 43.4849 171.999V151.629H54.6968Z" fill="#08475E"/>
<path d="M134.515 151.629V171.999C130.934 174.218 127.187 176.187 123.303 177.871V151.629H134.515Z" fill="#05303D"/>
<path d="M119.681 55.0032C118.385 34.552 102.468 26.9941 88.9996 26.9941C75.5314 26.9941 59.6147 34.552 58.3186 55.0032C54.8358 55.7035 52.3619 60.451 52.7513 64.2897L53.3482 73.0255C53.7567 77.0569 57.1661 79.9995 60.9236 79.5616L61.5716 79.4886C69.2681 100.968 81.3383 103.208 88.9996 104.465C96.6613 103.208 108.731 100.968 116.428 79.4886L117.076 79.5616C120.833 79.9995 124.242 77.0565 124.651 73.0255L125.248 64.2897C125.637 60.451 123.163 55.7035 119.681 55.0032Z" fill="#FFC397"/>
<path d="M125.248 64.2897L124.651 73.0255C124.243 77.0569 120.833 79.9995 117.076 79.5616L116.428 79.4886C113.797 86.821 110.66 91.914 107.362 95.4871C101.003 102.382 94.0468 103.636 88.9995 104.465V26.9941C102.468 26.9941 118.384 34.552 119.681 55.0032C123.164 55.7035 125.638 60.451 125.248 64.2897Z" fill="#E5A376"/>
<path d="M56.2006 50.069C56.7436 54.4432 58.9825 60.5811 58.9825 60.5811L63.938 63.1209L70.184 41.417C70.184 41.417 79.9591 54.8664 103.174 53.8789L107.383 42.8728L114.577 63.1209L119.533 60.2285C119.533 60.2285 121.44 51.7694 121.893 47.8468C122.499 42.591 128.834 8.72656 89.1229 8.72656C57.1511 8.7262 53.2139 30.738 56.2006 50.069Z" fill="#0A617D"/>
<path d="M121.892 47.8471C121.44 51.7675 119.535 60.2298 119.535 60.2298L114.577 63.1204L107.384 42.8716L103.174 53.8776C97.7227 54.1089 93.0154 53.5452 89 52.5443V8.72607H89.1217C128.834 8.72607 122.5 42.5897 121.892 47.8471Z" fill="#08475E"/>
<path d="M99.0935 72.7178H78.9054C76.2518 72.7178 73.6332 73.3483 71.25 74.5616L61.5713 79.4887C66.9426 105.959 88.9996 105.816 88.9996 105.816C88.9996 105.816 111.057 105.959 116.428 79.4891L106.749 74.562C104.366 73.3486 101.747 72.7178 99.0935 72.7178Z" fill="white"/>
<path d="M116.427 79.4886C111.059 105.959 89 105.815 89 105.815V72.7173H99.0925C101.749 72.7173 104.366 73.3496 106.748 74.5601L116.427 79.4886Z" fill="#D8F1FB"/>
</g>
<defs>
<clipPath id="clip0">
<rect width="178" height="185" fill="white"/>
</clipPath>
</defs>
</svg>
